<?xml version="1.0" encoding="UTF-8"?>
<svg version="1.1" xmlns="http://www.w3.org/2000/svg" width="860" height="860">
<path d="M0 0 C4.6255478 4.2537748 8.02168715 9.07860148 11.5625 14.25 C12.81346133 16.05752754 14.0647689 17.8648155 15.31640625 19.671875 C16.24864014 21.02249023 16.24864014 21.02249023 17.19970703 22.40039062 C19.77445445 26.11830635 22.38539279 29.81006218 25 33.5 C31.10183919 42.13010751 37.16099034 50.78989799 43.21777344 59.45166016 C46.14376733 63.6354306 49.0719831 67.81764524 52 72 C53.16667759 73.66665902 54.33334425 75.33332569 55.5 77 C56.0775 77.825 56.655 78.65 57.25 79.5 C104.5 147 104.5 147 106.25048828 149.50073242 C107.41548364 151.16498828 108.5805226 152.82921361 109.74560547 154.4934082 C112.68820411 158.69670923 115.63000904 162.90056181 118.5703125 167.10546875 C124.03176431 174.91438668 129.49959932 182.7184538 135 190.5 C141.10075439 199.1308807 147.16098513 207.78989054 153.21777344 216.45166016 C156.14376733 220.6354306 159.0719831 224.81764524 162 229 C163.16667759 230.66665902 164.33334425 232.33332569 165.5 234 C166.36625 235.2375 166.36625 235.2375 167.25 236.5 C214.5 304 214.5 304 216.25048828 306.50073242 C217.41548364 308.16498828 218.5805226 309.82921361 219.74560547 311.4934082 C222.68820411 315.69670923 225.63000904 319.90056181 228.5703125 324.10546875 C234.03176431 331.91438668 239.49959932 339.7184538 245 347.5 C251.10075439 356.1308807 257.16098513 364.78989054 263.21777344 373.45166016 C266.7220393 378.4622803 270.229009 383.47100891 273.73632812 388.47949219 C276.73094734 392.75631929 279.72303013 397.03488682 282.7109375 401.31640625 C283.32453125 402.19490234 283.938125 403.07339844 284.5703125 403.97851562 C285.72481978 405.63156014 286.87854172 407.28515362 288.03125 408.93945312 C288.56492187 409.70322266 289.09859375 410.46699219 289.6484375 411.25390625 C290.14957565 411.98178848 290.65071381 412.70967072 291.16703796 413.45960999 C292.97191212 416.027448 292.97191212 416.027448 295.0337677 418.417099 C300.82407578 425.52240051 302.24235763 430.8143077 302.23828125 439.875 C302.25779343 441.07954834 302.2773056 442.28409668 302.29740906 443.52514648 C302.32461954 446.06301412 302.33102551 448.60118202 302.31762695 451.13916016 C302.31254438 454.96658194 302.41903529 458.77998309 302.53320312 462.60546875 C302.73169257 478.75801539 300.14618229 488.87651388 289.55227661 501.17608643 C287.56801022 503.50758481 285.86100626 505.98407651 284.16015625 508.52734375 C283.12866956 509.99814358 282.09614641 511.46821717 281.0625 512.9375 C279.88668983 514.61326096 278.71090946 516.28904283 277.53515625 517.96484375 C276.95137207 518.79612793 276.36758789 519.62741211 275.76611328 520.48388672 C272.83978136 524.65291862 269.92021901 528.8266852 267 533 C265.83336611 534.66668961 264.66669943 536.33335627 263.5 538 C262.9225 538.825 262.345 539.65 261.75 540.5 C242.50000001 567.99999999 242.50000001 567.99999999 240.75048828 570.49926758 C239.58215033 572.16834507 238.41385616 573.83745322 237.24560547 575.5065918 C234.35486511 579.63662338 231.46340146 583.76614446 228.5703125 587.89453125 C222.36438924 596.75207626 216.17316719 605.61958929 210 614.5 C203.25927821 624.19686646 196.4951861 633.87709183 189.71777344 643.54833984 C186.8103791 647.69786428 183.90531999 651.84902306 181 656 C179.83334425 657.66667431 178.66667759 659.33334098 177.5 661 C176.9225 661.825 176.345 662.65 175.75 663.5 C128.5 731 128.5 731 126.74926758 733.50097656 C125.58495489 735.16432683 124.42072935 736.82773809 123.2565918 738.49121094 C120.30462804 742.70912809 117.35106366 746.92590872 114.39453125 751.140625 C113.8005957 751.98786133 113.20666016 752.83509766 112.59472656 753.70800781 C111.41900615 755.38493944 110.24258886 757.06138272 109.06542969 758.73730469 C106.25884792 762.74055293 103.47742656 766.75746376 100.74609375 770.8125 C100.23908936 771.56241211 99.73208496 772.31232422 99.2097168 773.08496094 C98.25859038 774.49566324 97.31313935 775.91021389 96.37426758 777.32910156 C95.29971176 778.92112829 94.15654848 780.46650239 93 782 C92.34 782 91.68 782 91 782 C91 705.77 91 629.54 91 551 C99.58 546.05 108.16 541.1 117 536 C121.61998253 533.22848263 126.22643874 530.45007549 130.8125 527.625 C140.37676481 521.76887803 150.00142978 516.02724621 159.6875 510.375 C169.60301942 504.58754752 179.47881769 498.73954695 189.31469727 492.81738281 C199.37598272 486.76286056 209.47372343 480.77044347 219.57543945 474.78369141 C220.21276505 474.40578461 220.85009064 474.02787781 221.50672913 473.63851929 C222.7688932 472.89028224 224.03137036 472.14257306 225.29417419 471.39541626 C228.61709193 469.42645775 231.92789441 467.43967357 235.22558594 465.42871094 C235.91405609 465.01040009 236.60252625 464.59208923 237.31185913 464.16110229 C238.63463569 463.35634757 239.95523615 462.54800209 241.27334595 461.73562622 C245.77694766 459 245.77694766 459 248 459 C248 458.34 248 457.68 248 457 C247.27055176 456.71640625 246.54110352 456.4328125 245.78955078 456.140625 C243.25176818 455.10294599 240.81916216 453.97420203 238.3671875 452.75 C237.48877197 452.31179932 236.61035645 451.87359863 235.70532227 451.42211914 C234.30431274 450.71817017 234.30431274 450.71817017 232.875 450 C231.896521 449.50943115 230.91804199 449.0188623 229.90991211 448.51342773 C221.38198553 444.2221911 212.9331982 439.79069411 204.49853516 435.31982422 C199.92493483 432.90386923 195.33694678 430.51548938 190.75 428.125 C189.78876221 427.62379639 188.82752441 427.12259277 187.8371582 426.60620117 C184.89160177 425.07048791 181.94583418 423.53518043 179 422 C167.43649389 415.97383995 155.87661073 409.94166569 144.34277344 403.85888672 C136.66397806 399.81395038 128.96072042 395.81636296 121.25830078 391.81665039 C114.24052604 388.170517 107.23655016 384.49939066 100.2421875 380.80859375 C93.67473412 377.34676663 87.08862878 373.9213241 80.5 370.5 C72.40081579 366.29427904 64.3134374 362.0676443 56.2421875 357.80859375 C49.67473412 354.34676663 43.08862878 350.9213241 36.5 347.5 C28.40081579 343.29427904 20.3134374 339.0676443 12.2421875 334.80859375 C5.67473402 331.34676658 -0.91137898 327.9213392 -7.5 324.5 C-15.64847994 320.2684677 -23.78576849 316.01702625 -31.90722656 311.73388672 C-38.01330681 308.51518778 -44.12986447 305.31688528 -50.25 302.125 C-51.68243042 301.37730347 -51.68243042 301.37730347 -53.14379883 300.61450195 C-58.16551021 297.99449691 -63.19115977 295.38241795 -68.22265625 292.78125 C-69.24262695 292.25257324 -70.26259766 291.72389648 -71.31347656 291.17919922 C-73.24505401 290.17818798 -75.17790145 289.17962161 -77.11230469 288.18408203 C-83.22109709 285.0143 -89.13165424 281.59365726 -95 278 C-92.93905847 270.05821957 -90.50823262 262.29494641 -87.859375 254.53125 C-87.26178879 252.76782761 -87.26178879 252.76782761 -86.65213013 250.96878052 C-85.5782224 247.80299516 -84.5012558 244.63828659 -83.42256927 241.47412872 C-82.74226978 239.47731023 -82.06332737 237.48003535 -81.38482666 235.48260498 C-75.68085913 218.69141944 -69.905914 201.92709785 -64.0213623 185.19824219 C-57.16831688 165.69305242 -50.59720148 146.09275732 -44 126.5 C-36.47375889 104.14844681 -28.92495094 81.80927524 -21.09716797 59.56103516 C-17.95169803 50.61737161 -14.84979646 41.66067148 -11.80078125 32.68359375 C-11.27479088 31.13535164 -11.27479088 31.13535164 -10.73817444 29.55583191 C-9.03917677 24.55111225 -7.34472942 19.54489591 -5.65551758 14.53686523 C-5.05424824 12.76153939 -4.45293247 10.98622926 -3.8515625 9.2109375 C-3.57633255 8.39044418 -3.3011026 7.56995087 -3.01753235 6.72459412 C-1.11310637 1.11310637 -1.11310637 1.11310637 0 0 Z " fill="#6AA02F" transform="translate(130,36)"/>
<path d="M0 0 C0.66 0 1.32 0 2 0 C4.36489418 4.704393 6.7267384 9.41030241 9.08618164 14.11743164 C9.88326712 15.70668329 10.68107851 17.29557113 11.47973633 18.8840332 C15.56448868 27.00950444 19.61231408 35.14762323 23.50285339 43.3681488 C29.20402022 55.41114763 35.12731249 67.33677282 41.09375 79.25 C41.55123816 80.16354185 42.00872631 81.0770837 42.48007774 82.01830864 C45.81722553 88.68029066 49.15823275 95.34033427 52.5 102 C56.30461932 109.58206394 60.1076936 117.16489645 63.90625 124.75 C64.36106436 125.65808725 64.81587872 126.56617451 65.28447533 127.50177956 C71.25053383 139.42056864 77.12075597 151.37464388 82.82080078 163.42333984 C86.28367915 170.73403015 89.95296567 177.94122075 93.62280273 185.1496582 C94.52665792 186.92748324 95.4255366 188.70783567 96.32421875 190.48828125 C96.84072998 191.50446533 97.35724121 192.52064941 97.8894043 193.56762695 C99 196 99 196 99 198 C97.98983322 198.50397308 96.97966644 199.00794617 95.93888855 199.52719116 C86.33408248 204.31937791 76.73038244 209.11377489 67.1277113 213.91023827 C62.19301934 216.37499506 57.25796515 218.83902026 52.32202148 221.30126953 C47.54242643 223.68556157 42.76386345 226.07191096 37.98595619 228.45958328 C36.17943903 229.3619309 34.37257517 230.26358483 32.5653286 231.16447067 C22.62232144 236.12153722 12.73513666 241.16398917 2.91639233 246.36305809 C-4.25760807 250.15467478 -11.49625732 253.80710651 -18.76223755 257.41870117 C-21.02994313 258.54595246 -23.29623498 259.67600683 -25.56225586 260.80664062 C-31.18216768 263.61004299 -36.80429895 266.40898236 -42.4263916 269.20800781 C-47.97292491 271.96967435 -53.51851856 274.73321388 -59.0625 277.5 C-59.83097637 277.88347784 -60.59945274 278.26695568 -61.39121628 278.66205406 C-69.46221424 282.69236091 -77.51870997 286.73754313 -85.4765625 290.98828125 C-94.28423544 295.69285052 -103.2144378 300.14720784 -112.1484375 304.60546875 C-112.92287453 304.9919672 -113.69731155 305.37846565 -114.49521637 305.77667618 C-120.1204006 308.58311683 -125.74751919 311.38566798 -131.375 314.1875 C-137.03414534 317.00515425 -142.69257505 319.82422823 -148.34932327 322.64669228 C-150.57769906 323.75770047 -152.80728648 324.86624781 -155.03695679 325.97465515 C-163.44517703 330.16382373 -171.7604563 334.48701926 -180 339 C-176.54929 341.80355639 -173.14316745 344.21227755 -169.29296875 346.44140625 C-168.16536133 347.0977002 -167.03775391 347.75399414 -165.87597656 348.43017578 C-165.27660278 348.77663147 -164.677229 349.12308716 -164.05969238 349.4800415 C-160.80432824 351.36221804 -157.55717151 353.25848682 -154.30859375 355.15234375 C-153.2894841 355.74571533 -153.2894841 355.74571533 -152.24978638 356.35107422 C-144.72561749 360.73487896 -137.23559575 365.17574247 -129.75 369.625 C-128.73877579 370.22575851 -128.73877579 370.22575851 -127.7071228 370.83865356 C-117.95357547 376.63412126 -108.21919402 382.46094927 -98.49536133 388.30615234 C-88.42516727 394.35519209 -78.34860873 400.39863728 -68.2125864 406.33702183 C-66.94049073 407.09944319 -65.68181668 407.88492427 -64.44087887 408.69707394 C-60.19366851 411.39707841 -56.04059987 413.41036461 -51.28842413 415.09481949 C-41.50845572 418.64358093 -31.08757412 423.16999346 -25 432 C-18.72900668 446.48724747 -21.19238427 465.22246057 -21.75539398 480.57210517 C-21.9567656 486.99448197 -21.97433124 493.41743723 -22.01220703 499.84248352 C-22.10007992 510.60828749 -22.29927733 521.36524893 -22.5859375 532.12719727 C-22.880595 543.2010442 -23.10661888 554.27286774 -23.2421875 565.34985352 C-23.25059465 566.03485775 -23.2590018 566.71986198 -23.26766372 567.42562392 C-23.30943106 570.86278976 -23.34986823 574.29996972 -23.38964462 577.73715913 C-23.72031592 606.1631975 -24.28535259 634.58119889 -25 663 C-25.66 663 -26.32 663 -27 663 C-28.19824219 661.57324219 -28.19824219 661.57324219 -29.546875 659.546875 C-30.05468506 658.792854 -30.56249512 658.03883301 -31.08569336 657.26196289 C-31.90952515 656.01854126 -31.90952515 656.01854126 -32.75 654.75 C-33.93256008 652.99279351 -35.11618799 651.23630525 -36.30078125 649.48046875 C-36.91260254 648.57087402 -37.52442383 647.6612793 -38.15478516 646.72412109 C-41.03580387 642.47082567 -43.98386648 638.26555548 -46.9375 634.0625 C-47.51790039 633.23524414 -48.09830078 632.40798828 -48.69628906 631.55566406 C-49.87514966 629.87557615 -51.05434883 628.19572575 -52.23388672 626.51611328 C-55.16021864 622.34708138 -58.07978099 618.1733148 -61 614 C-62.16663389 612.33331039 -63.33330057 610.66664373 -64.5 609 C-71.5 599 -78.5 589 -85.5 579 C-86.07733887 578.1752417 -86.65467773 577.3504834 -87.24951172 576.50073242 C-88.41784967 574.83165493 -89.58614384 573.16254678 -90.75439453 571.4934082 C-93.64513489 567.36337662 -96.53659854 563.23385554 -99.4296875 559.10546875 C-106.31728062 549.27499493 -113.18294378 539.42957704 -120.03417969 529.57373047 C-126.09800618 520.85313321 -132.18658311 512.15003556 -138.28222656 503.45166016 C-141.1896209 499.30213572 -144.09468001 495.15097694 -147 491 C-148.16665575 489.33332569 -149.33332241 487.66665902 -150.5 486 C-199.5 416 -199.5 416 -201.25097656 413.49853516 C-202.41430058 411.83669009 -203.57771164 410.17490595 -204.74121094 408.51318359 C-207.70974716 404.27324908 -210.67662944 400.03217272 -213.640625 395.7890625 C-214.24519531 394.92410156 -214.84976562 394.05914063 -215.47265625 393.16796875 C-216.60084367 391.55379291 -217.72850974 389.93925246 -218.85546875 388.32421875 C-219.38269531 387.57011719 -219.90992188 386.81601562 -220.453125 386.0390625 C-220.99428955 385.23114258 -221.5354541 384.42322266 -222.09301758 383.59082031 C-223.99287582 380.88406612 -223.99287582 380.88406612 -226.6003418 378.33886719 C-236.49125769 367.71430835 -235.57173696 354.89604432 -235.35864258 341.078125 C-235.30722165 337.67965961 -235.35152993 334.29002269 -235.42012691 330.89214993 C-235.84974562 306.09743374 -235.84974562 306.09743374 -227.39294434 297.16346741 C-225.94910552 295.75435476 -224.47516326 294.3762857 -223 293 C-221.62476101 291.28897415 -220.28367102 289.54959009 -218.98828125 287.77734375 C-218.08239258 286.58625 -218.08239258 286.58625 -217.15820312 285.37109375 C-216.24458008 284.16646484 -216.24458008 284.16646484 -215.3125 282.9375 C-213.93362322 281.12367551 -212.55471609 279.30987409 -211.17578125 277.49609375 C-210.48436035 276.58585449 -209.79293945 275.67561523 -209.08056641 274.73779297 C-205.72472588 270.32188172 -202.36210714 265.91114069 -199 261.5 C-197.66663232 259.75002617 -196.33329903 258.00002614 -195 256.25 C-139 182.75 -139 182.75 -136.99975586 180.12475586 C-135.66713824 178.37564439 -134.33461862 176.62645825 -133.00219727 174.87719727 C-129.65871529 170.4879836 -126.31351262 166.10010178 -122.96484375 161.71484375 C-116.39620884 153.10912069 -109.8546811 144.4854463 -103.375 135.8125 C-98.0212871 128.64828168 -92.57662185 121.56281146 -87.06689453 114.51806641 C-82.72323253 108.95556372 -78.46962704 103.33120776 -74.24829102 97.67553711 C-70.88850654 93.17625508 -67.48807653 88.71101506 -64.05615234 84.26635742 C-60.14164359 79.19338012 -56.25692879 74.09793787 -52.375 69 C-51.69211914 68.10321533 -51.00923828 67.20643066 -50.30566406 66.2824707 C-48.90259366 64.43967345 -47.49959957 62.5968181 -46.09667969 60.75390625 C-43.3939599 57.20399019 -40.68999123 53.65502678 -37.98583984 50.10620117 C-36.66052677 48.36687033 -35.3353317 46.62744955 -34.01025391 44.88793945 C-30.62849494 40.4486047 -27.24524974 36.0104154 -23.859375 31.57421875 C-23.17762207 30.68049561 -22.49586914 29.78677246 -21.79345703 28.8659668 C-20.44615439 27.09998623 -19.0981877 25.33451205 -17.74951172 23.56958008 C-14.60154734 19.4435122 -11.47526391 15.30445498 -8.3984375 11.125 C-7.84317383 10.37323486 -7.28791016 9.62146973 -6.71582031 8.84692383 C-5.68087038 7.44205394 -4.65126898 6.03322277 -3.62792969 4.61987305 C-2.46590275 3.04393095 -1.2393177 1.51591283 0 0 Z " fill="#6AA02F" transform="translate(703,155)"/>
<path d="M0 0 C0.33387371 7.62609961 0.55898361 15.25027356 0.71411133 22.88208008 C0.77887017 25.46905903 0.86711884 28.05557415 0.98071289 30.64086914 C1.73534315 48.27736367 0.31308797 59.632962 -11.43966675 73.17910767 C-13.43335538 75.50572113 -15.13943707 77.98104948 -16.83984375 80.52734375 C-17.87133044 81.99814358 -18.90385359 83.46821717 -19.9375 84.9375 C-21.11331017 86.61326096 -22.28909054 88.28904283 -23.46484375 89.96484375 C-24.04862793 90.79612793 -24.63241211 91.62741211 -25.23388672 92.48388672 C-28.16021864 96.65291862 -31.07978099 100.8266852 -34 105 C-35.16663389 106.66668961 -36.33330057 108.33335627 -37.5 110 C-38.0775 110.825 -38.655 111.65 -39.25 112.5 C-58.5 140 -58.5 140 -60.24951172 142.49926758 C-61.41784967 144.16834507 -62.58614384 145.83745322 -63.75439453 147.5065918 C-66.64513489 151.63662338 -69.53659854 155.76614446 -72.4296875 159.89453125 C-78.63561076 168.75207626 -84.82683281 177.61958929 -91 186.5 C-97.74072179 196.19686646 -104.5048139 205.87709183 -111.28222656 215.54833984 C-114.1896209 219.69786428 -117.09468001 223.84902306 -120 228 C-121.16665575 229.66667431 -122.33332241 231.33334098 -123.5 233 C-124.0775 233.825 -124.655 234.65 -125.25 235.5 C-172.5 303 -172.5 303 -174.25073242 305.50097656 C-175.41504511 307.16432683 -176.57927065 308.82773809 -177.7434082 310.49121094 C-180.69537196 314.70912809 -183.64893634 318.92590872 -186.60546875 323.140625 C-187.1994043 323.98786133 -187.79333984 324.83509766 -188.40527344 325.70800781 C-189.58099385 327.38493944 -190.75741114 329.06138272 -191.93457031 330.73730469 C-194.74115208 334.74055293 -197.52257344 338.75746376 -200.25390625 342.8125 C-200.76091064 343.56241211 -201.26791504 344.31232422 -201.7902832 345.08496094 C-202.74140962 346.49566324 -203.68686065 347.91021389 -204.62573242 349.32910156 C-205.70028824 350.92112829 -206.84345152 352.46650239 -208 354 C-208.66 354 -209.32 354 -210 354 C-210 277.77 -210 201.54 -210 123 C-201.42 118.05 -192.84 113.1 -184 108 C-179.38001747 105.22848263 -174.77356126 102.45007549 -170.1875 99.625 C-160.62323519 93.76887803 -150.99857022 88.02724621 -141.3125 82.375 C-131.39556635 76.58672207 -121.51883317 70.7371131 -111.6809082 64.81518555 C-98.37539923 56.80991028 -85.01656446 48.89433303 -71.65618896 40.9810791 C-70.1919693 40.11371714 -68.72804258 39.24586069 -67.26416016 38.37792969 C-60.08721716 34.12481542 -52.88378824 29.92637145 -45.62963867 25.80615234 C-33.47944022 18.90475841 -21.48840234 11.75402091 -9.52929688 4.52709961 C-8.69462891 4.02315674 -7.85996094 3.51921387 -7 3 C-6.10861328 2.43998291 -5.21722656 1.87996582 -4.29882812 1.30297852 C-2 0 -2 0 0 0 Z " fill="#006B57" transform="translate(431,464)"/>
<path d="M0 0 C8.02040825 4.35579257 15.97227658 8.80896912 23.875 13.375 C24.44582306 13.70426483 25.01664612 14.03352966 25.60476685 14.37277222 C32.81028401 18.53077658 39.97769167 22.72320218 46.99609375 27.19140625 C49.66063791 28.79567666 52.35015223 30.287796 55.0859375 31.765625 C61.21356556 35.08632113 67.20263946 38.61737007 73.1875 42.1875 C74.35323986 42.88096799 75.51909604 43.57424048 76.68505859 44.26733398 C79.16443274 45.74145668 81.64319136 47.21660731 84.12158203 48.69238281 C88.07704332 51.04689266 92.03627215 53.39502034 95.99609375 55.7421875 C108.18127231 62.96628324 120.35911465 70.20161046 132.5 77.5 C143.5697056 84.1544179 154.64309003 90.80790452 165.7874136 97.33702183 C167.05950927 98.09944319 168.31818332 98.88492427 169.55912113 99.69707394 C173.80633149 102.39707841 177.95940013 104.41036461 182.71157587 106.09481949 C192.49154428 109.64358093 202.91242588 114.16999346 209 123 C215.27099332 137.48724747 212.80761573 156.22246057 212.24460602 171.57210517 C212.0432344 177.99448197 212.02566876 184.41743723 211.98779297 190.84248352 C211.89992008 201.60828749 211.70072267 212.36524893 211.4140625 223.12719727 C211.119405 234.2010442 210.89338112 245.27286774 210.7578125 256.34985352 C210.74940535 257.03485775 210.7409982 257.71986198 210.73233628 258.42562392 C210.69056894 261.86278976 210.65013177 265.29996972 210.61035538 268.73715913 C210.27968408 297.1631975 209.71464741 325.58119889 209 354 C208.34 354 207.68 354 207 354 C205.80175781 352.57324219 205.80175781 352.57324219 204.453125 350.546875 C203.94531494 349.792854 203.43750488 349.03883301 202.91430664 348.26196289 C202.36508545 347.43301514 201.81586426 346.60406738 201.25 345.75 C200.06743992 343.99279351 198.88381201 342.23630525 197.69921875 340.48046875 C197.08739746 339.57087402 196.47557617 338.6612793 195.84521484 337.72412109 C192.96419613 333.47082567 190.01613352 329.26555548 187.0625 325.0625 C186.48209961 324.23524414 185.90169922 323.40798828 185.30371094 322.55566406 C184.12485034 320.87557615 182.94565117 319.19572575 181.76611328 317.51611328 C178.83978136 313.34708138 175.92021901 309.1733148 173 305 C171.83336611 303.33331039 170.66669943 301.66664373 169.5 300 C162.5 290 155.5 280 148.5 270 C147.92266113 269.1752417 147.34532227 268.3504834 146.75048828 267.50073242 C145.58215033 265.83165493 144.41385616 264.16254678 143.24560547 262.4934082 C140.35486511 258.36337662 137.46340146 254.23385554 134.5703125 250.10546875 C127.68271938 240.27499493 120.81705622 230.42957704 113.96582031 220.57373047 C107.90199382 211.85313321 101.81341689 203.15003556 95.71777344 194.45166016 C92.8103791 190.30213572 89.90531999 186.15097694 87 182 C85.83334425 180.33332569 84.66667759 178.66665902 83.5 177 C34.5 107 34.5 107 32.74902344 104.49853516 C31.58569942 102.83669009 30.42228836 101.17490595 29.25878906 99.51318359 C26.29025284 95.27324908 23.32337056 91.03217272 20.359375 86.7890625 C19.75480469 85.92410156 19.15023438 85.05914063 18.52734375 84.16796875 C17.39915633 82.55379291 16.27149026 80.93925246 15.14453125 79.32421875 C14.35369141 78.19306641 14.35369141 78.19306641 13.546875 77.0390625 C13.00659668 76.23130371 12.46631836 75.42354492 11.90966797 74.59130859 C10.00653673 71.88039744 10.00653673 71.88039744 7.37548828 69.33447266 C-2.60507439 58.67825179 -1.18653654 46.0073705 -0.75439453 32.16357422 C-0.73203735 31.4997876 -0.70968018 30.83600098 -0.68664551 30.15209961 C-0.5830808 26.74656374 -0.53841223 23.34026088 -0.48828125 19.93359375 C-0.37882241 13.28709846 -0.21211835 6.64396997 0 0 Z " fill="#006B57" transform="translate(469,464)"/>
</svg>
